#!OML:ASF H:\Dans Jumps\Project 1\Capture day 1\Session 1\subject.ASF
:FULLY-SPECIFIED
:DEGREES
121
root 0.696649 17.4665 -13.9982 4.18836 -0.88585 -1.45473
lowerback -2.29303 -0.774095 -0.448276
upperback 2.21946 -1.07942 1.92571
thorax 3.61562 -0.576706 2.17693
lowerneck -13.7852 0.676108 -1.66245
upperneck 28.8528 1.46652 -0.205015
head 11.6907 0.446764 0.413958
rclavicle 4.02539e-015 -1.35174e-014
rhumerus -23.3674 -18.7102 -80.083
rradius 23.4707
rwrist 33.6724
rhand -18.1664 -27.8382
rfingers 7.12502
rthumb 8.10969 -57.6626
lclavicle 4.02539e-015 -1.35174e-014
lhumerus -21.8623 0.498271 87.8655
lradius 19.6253
lwrist 1.21173
lhand -23.8299 -2.1427
lfingers 7.12502
lthumb 2.64167 27.8207
rfemur -11.3544 -2.3839 19.5351
rtibia 23.7736
rfoot -15.0412 -4.11402
rtoes 9.44277
lfemur -10.9416 9.04995 -19.1846
ltibia 21.3505
lfoot -13.0863 3.68538
ltoes -1.41073
122
root 0.696262 17.4666 -13.9972 4.17759 -0.875009 -1.45299
lowerback -2.29786 -0.769143 -0.43508
upperback 2.21514 -1.07332 1.92671
thorax 3.61338 -0.57329 2.17084
lowerneck -13.7947 0.675302 -1.66433
upperneck 28.8639 1.46701 -0.2069
head 11.697 0.446464 0.413776
rclavicle -1.53561e-014 2.10712e-014
rhumerus -23.3868 -18.7575 -80.0473
rradius 23.4311
rwrist 33.7194
rhand -18.1446 -27.8508
rfingers 7.12502
rthumb 8.13076 -57.6743
lclavicle -1.53561e-014 2.10712e-014
lhumerus -21.8263 0.599498 87.8258
lradius 19.5274
lwrist 1.06507
lhand -23.7926 -2.13739
lfingers 7.12502
lthumb 2.67767 27.8255
rfemur -11.3231 -2.38969 19.5329
rtibia 23.7494
rfoot -15.0441 -4.11383
rtoes 9.45939
lfemur -10.9195 9.01636 -19.1847
ltibia 21.3384
lfoot -13.0806 3.71377
ltoes -1.40679
123
root 0.695755 17.4667 -13.9963 4.16935 -0.864377 -1.44982
lowerback -2.30387 -0.764626 -0.423204
upperback 2.20945 -1.06771 1.92719
thorax 3.61043 -0.570137 2.16492
lowerneck -13.8046 0.675017 -1.66668
upperneck 28.878 1.46821 -0.208072
head 11.7046 0.446481 0.414054
rclavicle 7.55382e-015 -3.18055e-015
rhumerus -23.4044 -18.7982 -80.013
rradius 23.3942
rwrist 33.7648
rhand -18.1359 -27.839
rfingers 7.12502
rthumb 8.13921 -57.6622
lclavicle 7.55382e-015 -3.18055e-015
lhumerus -21.7884 0.707684 87.7826
lradius 19.4306
lwrist 0.913749
lhand -23.7556 -2.12575
lfingers 7.12502
lthumb 2.71338 27.8367
rfemur -11.2969 -2.39402 19.5299
rtibia 23.7282
rfoot -15.0469 -4.11474
rtoes 9.47059
lfemur -10.9015 8.98224 -19.1867
ltibia 21.3266
lfoot -13.0727 3.74381
ltoes -1.41054
124
root 0.695133 17.4668 -13.9956 4.16409 -0.854169 -1.44829
lowerback -2.30986 -0.760094 -0.409183
upperback 2.20186 -1.06214 1.9274
thorax 3.60545 -0.566915 2.15753
lowerneck -13.8129 0.675699 -1.66865
upperneck 28.8949 1.47055 -0.208747
head 11.7128 0.447085 0.414613
rclavicle 4.62174e-015 -4.77083e-015
rhumerus -23.4185 -18.8367 -79.9807
rradius 23.3573
rwrist 33.8125
rhand -18.1375 -27.8143
rfingers 7.12502
rthumb 8.13768 -57.6376
lclavicle 4.62174e-015 -4.77083e-015
lhumerus -21.7505 0.820574 87.7355
lradius 19.3382
lwrist 0.759663
lhand -23.7185 -2.10152
lfingers 7.12502
lthumb 2.74918 27.8605
rfemur -11.2758 -2.39507 19.5292
rtibia 23.7096
rfoot -15.0487 -4.11626
rtoes 9.48812
lfemur -10.8896 8.94915 -19.1872
ltibia 21.3182
lfoot -13.063 3.77538
ltoes -1.43066
125
root 0.694458 17.4668 -13.9951 4.16146 -0.844803 -1.4464
lowerback -2.31679 -0.755373 -0.394026
upperback 2.19346 -1.05633 1.927
thorax 3.60014 -0.563532 2.14886
lowerneck -13.8185 0.675348 -1.67503
upperneck 28.9111 1.47135 -0.205616
head 11.7202 0.447016 0.417109
rclavicle -9.88954e-015 1.11319e-014
rhumerus -23.4296 -18.8652 -79.9524
rradius 23.3267
rwrist 33.8504
rhand -18.1471 -27.7818
rfingers 7.12502
rthumb 8.12834 -57.6054
lclavicle -9.88954e-015 1.11319e-014
lhumerus -21.7138 0.934511 87.687
lradius 19.2531
lwrist 0.608975
lhand -23.6889 -2.08102
lfingers 7.12502
lthumb 2.77778 27.8806
rfemur -11.2606 -2.39617 19.5282
rtibia 23.694
rfoot -15.0492 -4.11608
rtoes 9.50447
lfemur -10.8837 8.91725 -19.1884
ltibia 21.3141
lfoot -13.0527 3.8069
ltoes -1.45414
126
root 0.693707 17.4667 -13.9948 4.16232 -0.839321 -1.44763
lowerback -2.32532 -0.749856 -0.376227
upperback 2.18483 -1.04961 1.92791
thorax 3.59542 -0.559651 2.1401
lowerneck -13.8231 0.675168 -1.68135
upperneck 28.9268 1.47261 -0.203374
head 11.7273 0.447052 0.41932
rclavicle 4.27387e-015 -2.42517e-014
rhumerus -23.4353 -18.8847 -79.9282
rradius 23.3036
rwrist 33.8765
rhand -18.1562 -27.7569
rfingers 7.12502
rthumb 8.11954 -57.5809
lclavicle 4.27387e-015 -2.42517e-014
lhumerus -21.6782 1.04995 87.6391
lradius 19.1775
lwrist 0.46866
lhand -23.6687 -2.05164
lfingers 7.12502
lthumb 2.79731 27.9098
rfemur -11.2519 -2.39268 19.5312
rtibia 23.6802
rfoot -15.0481 -4.11709
rtoes 9.51093
lfemur -10.8855 8.89006 -19.1866
ltibia 21.3153
lfoot -13.0431 3.83849
ltoes -1.48874
127
root 0.692878 17.4666 -13.9947 4.16472 -0.836081 -1.44913
lowerback -2.33364 -0.743241 -0.357762
upperback 2.17758 -1.04147 1.92858
thorax 3.59195 -0.555057 2.13079
lowerneck -13.8303 0.674035 -1.69008
upperneck 28.9419 1.47235 -0.198294
head 11.7346 0.446496 0.422802
rclavicle 1.43622e-014 -1.19271e-014
rhumerus -23.437 -18.8922 -79.9099
rradius 23.2929
rwrist 33.8831
rhand -18.1666 -27.7402
rfingers 7.12502
rthumb 8.10952 -57.5645
lclavicle 1.43622e-014 -1.19271e-014
lhumerus -21.6425 1.16355 87.5915
lradius 19.1123
lwrist 0.335763
lhand -23.6601 -2.0259
lfingers 7.12502
lthumb 2.80562 27.9354
rfemur -11.2469 -2.38715 19.5349
rtibia 23.6681
rfoot -15.0464 -4.1177
rtoes 9.51652
lfemur -10.8917 8.86502 -19.1843
ltibia 21.3207
lfoot -13.0345 3.86911
ltoes -1.51588
128
root 0.691963 17.4664 -13.9948 4.16842 -0.836484 -1.45452
lowerback -2.3435 -0.736174 -0.336617
upperback 2.17291 -1.03294 1.93075
thorax 3.59199 -0.550256 2.12152
lowerneck -13.8411 0.673132 -1.69585
upperneck 28.9538 1.47255 -0.196192
head 11.7414 0.446112 0.42474
rclavicle -1.83876e-015 -2.3059e-014
rhumerus -23.4323 -18.8846 -79.8986
rradius 23.2967
rwrist 33.8694
rhand -18.1729 -27.7342
rfingers 7.12502
rthumb 8.1035 -57.5588
lclavicle -1.83876e-015 -2.3059e-014
lhumerus -21.607 1.27559 87.5454
lradius 19.0612
lwrist 0.220432
lhand -23.6618 -1.9913
lfingers 7.12502
lthumb 2.80399 27.97
rfemur -11.2454 -2.38022 19.5432
rtibia 23.6567
rfoot -15.0443 -4.11699
rtoes 9.51825
lfemur -10.9011 8.84499 -19.1774
ltibia 21.3295
lfoot -13.0283 3.89741
ltoes -1.53753
129
root 0.690989 17.4662 -13.9951 4.17088 -0.839153 -1.46054
lowerback -2.35255 -0.72867 -0.315563
upperback 2.17062 -1.02387 1.93329
thorax 3.59404 -0.54522 2.11272
lowerneck -13.8518 0.673218 -1.69696
upperneck 28.9621 1.47402 -0.197943
head 11.7468 0.44636 0.424602
rclavicle -2.48481e-016 5.56597e-015
rhumerus -23.4252 -18.8649 -79.8913
rradius 23.3134
rwrist 33.8419
rhand -18.176 -27.7283
rfingers 7.12502
rthumb 8.10052 -57.553
lclavicle -2.48481e-016 5.56597e-015
lhumerus -21.5722 1.38418 87.5012
lradius 19.0207
lwrist 0.120834
lhand -23.6728 -1.95673
lfingers 7.12502
lthumb 2.79337 28.0047
rfemur -11.244 -2.37408 19.5526
rtibia 23.6461
rfoot -15.0413 -4.11509
rtoes 9.51302
lfemur -10.9097 8.82863 -19.1693
ltibia 21.3395
lfoot -13.0225 3.92316
ltoes -1.55563
130
root 0.689925 17.4661 -13.9955 4.1718 -0.842775 -1.46706
lowerback -2.36001 -0.721744 -0.295773
upperback 2.17024 -1.01556 1.93638
thorax 3.59723 -0.540624 2.10517
lowerneck -13.8607 0.674276 -1.69319
upperneck 28.9645 1.47675 -0.204024
head 11.7497 0.44722 0.422154
rclavicle -6.41081e-015 1.82882e-014
rhumerus -23.4149 -18.8394 -79.8866
rradius 23.3379
rwrist 33.817
rhand -18.1809 -27.7182
rfingers 7.12502
rthumb 8.09577 -57.5431
lclavicle -6.41081e-015 1.82882e-014
lhumerus -21.5391 1.48423 87.4594
lradius 18.9924
lwrist 0.0453438
lhand -23.6895 -1.9163
lfingers 7.12502
lthumb 2.77724 28.0454
rfemur -11.2416 -2.37009 19.563
rtibia 23.6359
rfoot -15.0386 -4.11182
rtoes 9.50859
lfemur -10.9164 8.81595 -19.1597
ltibia 21.3495
lfoot -13.0189 3.94442
ltoes -1.56638
131
root 0.688738 17.4659 -13.996 4.17086 -0.846705 -1.47171
lowerback -2.36385 -0.715672 -0.280258
upperback 2.17075 -1.00821 1.9397
thorax 3.59942 -0.536624 2.10024
lowerneck -13.8668 0.676245 -1.68513
upperneck 28.9621 1.48079 -0.214459
head 11.7501 0.448647 0.417489
rclavicle 5.81445e-015 -7.95139e-015
rhumerus -23.4037 -18.8015 -79.8853
rradius 23.3711
rwrist 33.7854
rhand -18.1881 -27.7026
rfingers 7.12502
rthumb 8.08884 -57.5278
lclavicle 5.81445e-015 -7.95139e-015
lhumerus -21.5078 1.56999 87.4214
lradius 18.9745
lwrist -0.00166867
lhand -23.7129 -1.87928
lfingers 7.12502
lthumb 2.75458 28.0827
rfemur -11.239 -2.36791 19.5719
rtibia 23.627
rfoot -15.0357 -4.10884
rtoes 9.49465
lfemur -10.9206 8.80552 -19.1511
ltibia 21.3579
lfoot -13.0158 3.96176
ltoes -1.57295
132
root 0.687409 17.4659 -13.9967 4.16868 -0.850133 -1.47453
lowerback -2.36391 -0.710857 -0.269666
upperback 2.17151 -1.00234 1.94336
thorax 3.59989 -0.533482 2.0984
lowerneck -13.8689 0.67967 -1.67204
upperneck 28.9551 1.48687 -0.229806
head 11.748 0.450977 0.410376
rclavicle 9.19379e-015 -1.11319e-014
rhumerus -23.3866 -18.7609 -79.8855
rradius 23.4016
rwrist 33.764
rhand -18.201 -27.6786
rfingers 7.12502
rthumb 8.07634 -57.5042
lclavicle 9.19379e-015 -1.11319e-014
lhumerus -21.4776 1.64206 87.3867
lradius 18.965
lwrist -0.0237626
lhand -23.7459 -1.86187
lfingers 7.12502
lthumb 2.72274 28.1005
rfemur -11.2358 -2.36465 19.5793
rtibia 23.6195
rfoot -15.0325 -4.10678
rtoes 9.49168
lfemur -10.9236 8.79529 -19.1437
ltibia 21.365
lfoot -13.0123 3.97743
ltoes -1.5843
133
root 0.685952 17.4659 -13.9977 4.16626 -0.851949 -1.475
lowerback -2.36027 -0.707576 -0.263644
upperback 2.1714 -0.998283 1.94692
thorax 3.59751 -0.531343 2.09895
lowerneck -13.8656 0.683259 -1.66045
upperneck 28.9449 1.49299 -0.243821
head 11.7435 0.453379 0.403971
rclavicle 8.10048e-015 -3.26007e-014
rhumerus -23.366 -18.7169 -79.8877
rradius 23.4308
rwrist 33.7523
rhand -18.2267 -27.6402
rfingers 7.12502
rthumb 8.0515 -57.4668
lclavicle 8.10048e-015 -3.26007e-014
lhumerus -21.4492 1.69424 87.3563
lradius 18.9632
lwrist -0.0208712
lhand -23.8008 -1.88046
lfingers 7.12502
lthumb 2.66972 28.0826
rfemur -11.234 -2.36285 19.5848
rtibia 23.6138
rfoot -15.0291 -4.10464
rtoes 9.48795
lfemur -10.9257 8.78194 -19.1375
ltibia 21.3713
lfoot -13.0104 3.9905
ltoes -1.56833
